<svg width="876" height="317" viewBox="0 0 876 317" fill="none" xmlns="http://www.w3.org/2000/svg">
<rect width="876" height="317" fill="white"/>
<g filter="url(#filter0_d_4_2073)">
<rect x="5" y="57" width="250" height="250" rx="20" fill="white"/>
<rect x="5" y="57" width="250" height="250" rx="20" stroke="black" stroke-width="2" stroke-dasharray="6 6"/>
</g>
<circle cx="153.5" cy="143.5" r="7.5" fill="#FF8E8E" stroke="black" stroke-width="2"/>
<path d="M61 195.5C61 199.642 57.6421 203 53.5 203C49.3579 203 46 199.642 46 195.5C46 191.358 49.3579 188 53.5 188C57.6421 188 61 191.358 61 195.5Z" fill="#FF8E8E" stroke="black" stroke-width="2"/>
<circle cx="199.5" cy="93.5" r="7.5" fill="#FF8E8E" stroke="black" stroke-width="2"/>
<circle cx="44.5" cy="90.5" r="7.5" fill="#FF8E8E" stroke="black" stroke-width="2"/>
<circle cx="144.5" cy="189.5" r="7.5" fill="#73CDFF" stroke="black" stroke-width="2"/>
<circle cx="108.5" cy="287.5" r="7.5" fill="#73CDFF" stroke="black" stroke-width="2"/>
<circle cx="212.5" cy="270.5" r="7.5" fill="#73CDFF" stroke="black" stroke-width="2"/>
<circle cx="229.5" cy="149.5" r="7.5" fill="#73CDFF" stroke="black" stroke-width="2"/>
<circle cx="108.5" cy="212.5" r="7.5" fill="#73CDFF" stroke="black" stroke-width="2"/>
<g filter="url(#filter1_d_4_2073)">
<path d="M107.758 27.6459C106.591 27.6459 106.007 27.3069 106.007 26.6288C106.007 26.5535 106.628 24.4251 107.871 20.2436C109.115 16.0622 109.793 13.8773 109.906 13.6889C110.056 13.4629 110.226 13.3311 110.414 13.2934C110.527 13.2181 115.5 13.1804 125.332 13.1804C135.202 13.1804 140.155 13.1992 140.193 13.2369C140.494 13.3499 140.645 13.5759 140.645 13.915C140.645 14.1033 140.626 14.3293 140.588 14.593C140.551 14.8567 140.475 15.1016 140.362 15.3276C140.249 15.5536 140.212 15.6855 140.249 15.7232C140.174 15.8738 135.145 21.3172 125.162 32.0534L110.188 48.1576L113.748 48.2141H115.726C117.534 48.2141 119.078 48.1388 120.359 47.9881C121.64 47.8374 123.09 47.3477 124.71 46.5189C126.33 45.6902 127.705 44.5412 128.835 43.0721C129.626 41.9796 130.267 40.793 130.756 39.5122C131.246 38.2314 131.604 37.2331 131.83 36.5174C132.056 35.8016 132.32 35.3496 132.621 35.1612C132.772 35.0859 133.167 35.0482 133.808 35.0482H134.034C135.051 35.0482 135.559 35.3872 135.559 36.0653C135.559 36.1783 134.768 38.7399 133.186 43.7501C131.604 48.7603 130.756 51.3408 130.643 51.4914C130.568 51.6421 130.361 51.7928 130.022 51.9435H114.822C112.599 51.9435 110.207 51.9435 107.645 51.9435C105.084 51.9435 103.539 51.9623 103.012 52C101.995 52 101.241 52 100.752 52C100.262 52 99.8664 51.9623 99.5651 51.887C99.2637 51.8116 99.0942 51.7363 99.0565 51.661C99.0188 51.5856 99 51.4538 99 51.2654C99 51.1147 99.0565 50.7569 99.1695 50.1918C99.2825 49.6267 99.3955 49.2877 99.5086 49.1747L99.9041 48.7227C100.168 48.4213 100.544 48.0069 101.034 47.4795C101.524 46.9521 102.07 46.3682 102.673 45.7278C103.276 45.0874 103.973 44.3152 104.764 43.4111C105.555 42.507 106.365 41.6594 107.193 40.8683L129.626 16.6838H125.671C125.407 16.6838 124.917 16.6838 124.202 16.6838C123.486 16.6838 122.996 16.6838 122.733 16.6838C122.469 16.6838 122.073 16.7026 121.546 16.7403C121.018 16.7779 120.566 16.8344 120.19 16.9098C119.813 16.9851 119.417 17.0605 119.003 17.1358C118.589 17.2111 118.137 17.343 117.647 17.5313C117.157 17.7197 116.686 17.8892 116.234 18.0399C113.183 19.5467 110.96 22.3909 109.567 26.5723C109.416 27.062 109.246 27.3634 109.058 27.4764C108.87 27.5894 108.436 27.6459 107.758 27.6459Z" fill="black"/>
<path d="M152.341 5.51558L151.822 5.71532C151.449 5.84849 150.916 5.98166 150.224 6.11482C149.531 6.24799 148.759 6.3412 147.907 6.39447H147.148V4.55678H147.907C149.158 4.50352 150.317 4.30377 151.382 3.95754C152.448 3.6113 153.193 3.29171 153.62 2.99874C154.046 2.70578 154.419 2.41281 154.738 2.11985C154.791 2.03995 154.951 2 155.218 2C155.457 2 155.684 2.0799 155.897 2.2397V14.1847L155.937 26.1696C156.123 26.356 156.283 26.4759 156.416 26.5291C156.549 26.5824 156.869 26.6357 157.375 26.6889C157.881 26.7422 158.706 26.7688 159.852 26.7688H160.89V28.6065H160.451C159.892 28.5266 157.774 28.4867 154.099 28.4867C150.477 28.4867 148.386 28.5266 147.827 28.6065H147.347V26.7688H148.386C148.972 26.7688 149.478 26.7688 149.904 26.7688C150.33 26.7688 150.663 26.7555 150.903 26.7289C151.143 26.7023 151.356 26.6623 151.542 26.609C151.729 26.5558 151.835 26.5291 151.862 26.5291C151.888 26.5291 151.968 26.4626 152.101 26.3294C152.235 26.1962 152.315 26.143 152.341 26.1696V5.51558Z" fill="black"/>
</g>
<path d="M25 286C85.8 272.4 115.667 246.333 123 235C131 224.667 149.2 206 158 214C169 224 172 242 213 244C245.8 245.6 244.667 212.667 240 196" stroke="#00A3FF" stroke-width="2" stroke-dasharray="7 7"/>
<path d="M24 270C27 139 41 158 45 143C49 128 87 144 123 132C159 120 125 100 186 111C234.8 119.8 242.333 106 240 98" stroke="#FF0000" stroke-width="2" stroke-dasharray="7 7"/>
<g filter="url(#filter2_d_4_2073)">
<rect x="619" y="57.4747" width="250" height="250" rx="20" fill="white"/>
<rect x="619" y="57.4747" width="250" height="250" rx="20" stroke="black" stroke-width="2" stroke-dasharray="6 6"/>
</g>
<line x1="637.644" y1="282.964" x2="857.559" y2="282.964" stroke="#00A3FF" stroke-width="2" stroke-dasharray="7 7"/>
<line x1="636.644" y1="283.964" x2="636.644" y2="69.9812" stroke="#FF0000" stroke-width="2" stroke-dasharray="7 7"/>
<path d="M645.119 114.473C645.119 118.578 641.701 121.947 637.432 121.947C633.164 121.947 629.746 118.578 629.746 114.473C629.746 110.368 633.164 106.998 637.432 106.998C641.701 106.998 645.119 110.368 645.119 114.473Z" fill="#FF8E8E" stroke="black" stroke-width="2"/>
<path d="M645.119 236.507C645.119 240.635 641.772 243.981 637.644 243.981C633.516 243.981 630.169 240.635 630.169 236.507C630.169 232.379 633.516 229.032 637.644 229.032C641.772 229.032 645.119 232.379 645.119 236.507Z" fill="#FF8E8E" stroke="black" stroke-width="2"/>
<path d="M645.119 202.397C645.119 206.665 641.749 210.083 637.644 210.083C633.539 210.083 630.169 206.665 630.169 202.397C630.169 198.128 633.539 194.71 637.644 194.71C641.749 194.71 645.119 198.128 645.119 202.397Z" fill="#FF8E8E" stroke="black" stroke-width="2"/>
<circle cx="637.644" cy="168.71" r="7.47458" fill="#FF8E8E" stroke="black" stroke-width="2"/>
<circle cx="756.288" cy="283.541" r="7.47458" fill="#73CDFF" stroke="black" stroke-width="2"/>
<path d="M674.78 283.541C674.78 287.646 671.362 291.015 667.093 291.015C662.825 291.015 659.407 287.646 659.407 283.541C659.407 279.436 662.825 276.066 667.093 276.066C671.362 276.066 674.78 279.436 674.78 283.541Z" fill="#73CDFF" stroke="black" stroke-width="2"/>
<circle cx="827.051" cy="283.541" r="7.47458" fill="#73CDFF" stroke="black" stroke-width="2"/>
<circle cx="796.966" cy="283.541" r="7.47458" fill="#73CDFF" stroke="black" stroke-width="2"/>
<circle cx="710.102" cy="283.541" r="7.47458" fill="#73CDFF" stroke="black" stroke-width="2"/>
<g filter="url(#filter3_d_4_2073)">
<path d="M632.987 27.0112C631.788 27.0112 631.189 26.6633 631.189 25.9676C631.189 25.8903 631.827 23.7064 633.103 19.416C634.378 15.1255 635.074 12.8837 635.19 12.6904C635.344 12.4585 635.518 12.3232 635.712 12.2846C635.828 12.2073 640.93 12.1686 651.018 12.1686C661.145 12.1686 666.228 12.188 666.266 12.2266C666.576 12.3426 666.73 12.5745 666.73 12.9224C666.73 13.1156 666.711 13.3475 666.672 13.6181C666.634 13.8887 666.556 14.1399 666.44 14.3718C666.324 14.6037 666.286 14.739 666.324 14.7777C666.247 14.9323 661.087 20.5176 650.844 31.5335L635.48 48.0574L639.132 48.1154H641.162C643.017 48.1154 644.602 48.0381 645.916 47.8835C647.23 47.7289 648.718 47.2264 650.38 46.3761C652.042 45.5257 653.453 44.3468 654.613 42.8394C655.424 41.7184 656.082 40.5009 656.584 39.1867C657.087 37.8725 657.454 36.8482 657.686 36.1138C657.918 35.3794 658.188 34.9156 658.497 34.7223C658.652 34.645 659.058 34.6064 659.715 34.6064H659.947C660.99 34.6064 661.512 34.9543 661.512 35.65C661.512 35.766 660.701 38.3943 659.077 43.5351C657.454 48.6759 656.584 51.3236 656.468 51.4782C656.391 51.6328 656.178 51.7874 655.83 51.942H640.234C637.954 51.942 635.499 51.942 632.871 51.942C630.242 51.942 628.658 51.9613 628.116 52C627.073 52 626.3 52 625.797 52C625.295 52 624.889 51.9613 624.58 51.884C624.271 51.8067 624.097 51.7294 624.058 51.6521C624.019 51.5748 624 51.4395 624 51.2463C624 51.0917 624.058 50.7245 624.174 50.1447C624.29 49.5649 624.406 49.217 624.522 49.1011L624.928 48.6372C625.198 48.328 625.585 47.9028 626.087 47.3617C626.59 46.8206 627.15 46.2215 627.769 45.5644C628.387 44.9073 629.102 44.1149 629.914 43.1872C630.726 42.2596 631.557 41.3899 632.407 40.5782L655.424 15.7633H651.366C651.095 15.7633 650.593 15.7633 649.859 15.7633C649.124 15.7633 648.622 15.7633 648.351 15.7633C648.08 15.7633 647.675 15.7826 647.134 15.8213C646.592 15.8599 646.129 15.9179 645.742 15.9952C645.355 16.0725 644.95 16.1498 644.524 16.2271C644.099 16.3044 643.635 16.4397 643.133 16.633C642.63 16.8263 642.147 17.0002 641.684 17.1548C638.553 18.7009 636.272 21.6192 634.842 25.9096C634.687 26.4121 634.513 26.7213 634.32 26.8372C634.127 26.9532 633.682 27.0112 632.987 27.0112Z" fill="black"/>
<path d="M686.084 31.8234C686.084 31.3209 686.354 30.9344 686.895 30.6638H723.828C724.407 30.9731 724.697 31.3596 724.697 31.8234C724.697 32.2486 724.427 32.6158 723.886 32.925L705.448 32.983H687.011C686.393 32.7897 686.084 32.4032 686.084 31.8234ZM686.084 43.0713C686.084 42.4915 686.393 42.105 687.011 41.9117H723.886C724.427 42.2982 724.697 42.6848 724.697 43.0713C724.697 43.5738 724.407 43.9603 723.828 44.2309H686.895C686.354 43.9603 686.084 43.5738 686.084 43.0713Z" fill="black"/>
<path d="M756.98 27.0112C755.782 27.0112 755.183 26.6633 755.183 25.9676C755.183 25.8903 755.82 23.7064 757.096 19.416C758.371 15.1255 759.067 12.8837 759.183 12.6904C759.338 12.4585 759.512 12.3232 759.705 12.2846C759.821 12.2073 764.923 12.1686 775.011 12.1686C785.138 12.1686 790.221 12.188 790.26 12.2266C790.569 12.3426 790.724 12.5745 790.724 12.9224C790.724 13.1156 790.704 13.3475 790.666 13.6181C790.627 13.8887 790.55 14.1399 790.434 14.3718C790.318 14.6037 790.279 14.739 790.318 14.7777C790.24 14.9323 785.08 20.5176 774.837 31.5335L759.473 48.0574L763.126 48.1154H765.155C767.01 48.1154 768.595 48.0381 769.909 47.8835C771.223 47.7289 772.712 47.2264 774.374 46.3761C776.036 45.5257 777.446 44.3468 778.606 42.8394C779.418 41.7184 780.075 40.5009 780.577 39.1867C781.08 37.8725 781.447 36.8482 781.679 36.1138C781.911 35.3794 782.181 34.9156 782.491 34.7223C782.645 34.645 783.051 34.6064 783.708 34.6064H783.94C784.984 34.6064 785.506 34.9543 785.506 35.65C785.506 35.766 784.694 38.3943 783.07 43.5351C781.447 48.6759 780.577 51.3236 780.461 51.4782C780.384 51.6328 780.171 51.7874 779.824 51.942H764.227C761.947 51.942 759.492 51.942 756.864 51.942C754.236 51.942 752.651 51.9613 752.11 52C751.066 52 750.293 52 749.791 52C749.288 52 748.882 51.9613 748.573 51.884C748.264 51.8067 748.09 51.7294 748.051 51.6521C748.013 51.5748 747.993 51.4395 747.993 51.2463C747.993 51.0917 748.051 50.7245 748.167 50.1447C748.283 49.5649 748.399 49.217 748.515 49.1011L748.921 48.6372C749.192 48.328 749.578 47.9028 750.081 47.3617C750.583 46.8206 751.143 46.2215 751.762 45.5644C752.38 44.9073 753.095 44.1149 753.907 43.1872C754.719 42.2596 755.55 41.3899 756.4 40.5782L779.418 15.7633H775.359C775.089 15.7633 774.586 15.7633 773.852 15.7633C773.117 15.7633 772.615 15.7633 772.344 15.7633C772.074 15.7633 771.668 15.7826 771.127 15.8213C770.586 15.8599 770.122 15.9179 769.735 15.9952C769.349 16.0725 768.943 16.1498 768.518 16.2271C768.093 16.3044 767.629 16.4397 767.126 16.633C766.624 16.8263 766.141 17.0002 765.677 17.1548C762.546 18.7009 760.265 21.6192 758.835 25.9096C758.681 26.4121 758.507 26.7213 758.313 26.8372C758.12 26.9532 757.676 27.0112 756.98 27.0112Z" fill="black"/>
<path d="M803.34 1.88558C802.41 1.88558 801.919 1.83093 801.864 1.72162C801.837 1.66696 801.823 1.55765 801.823 1.39369C801.823 0.737836 801.973 0.286935 802.274 0.0409897C802.328 0.0136624 802.533 -1.26586e-06 802.889 -1.26586e-06C804.364 0.0819806 806.1 0.122972 808.094 0.122972C811.948 0.122972 814.161 0.0819806 814.735 -1.26586e-06H815.227C815.391 0.163963 815.473 0.286935 815.473 0.368917C815.473 0.450899 815.446 0.696845 815.391 1.10675C815.254 1.51666 815.131 1.77627 815.022 1.88558H813.464C811.579 1.91291 810.472 2.03588 810.144 2.2545C809.953 2.36381 809.761 2.74639 809.57 3.40225C809.379 4.0581 808.463 7.6653 806.824 14.2239C806.387 16.0001 805.922 17.8857 805.43 19.8806C804.938 21.8755 804.569 23.3785 804.323 24.3896L803.954 25.8653C803.954 25.9746 804.077 26.0292 804.323 26.0292C804.569 26.0292 805.375 26.0566 806.742 26.1112H807.439C808.313 26.1112 809.01 26.0976 809.529 26.0702C810.048 26.0429 810.718 25.9473 811.538 25.7833C812.358 25.6193 813.041 25.3734 813.587 25.0455C814.134 24.7175 814.735 24.253 815.391 23.6518C816.047 23.0506 816.621 22.2991 817.112 21.3973C817.55 20.5775 817.96 19.662 818.342 18.6509C818.725 17.6398 818.957 17.0659 819.039 16.9293C819.176 16.8473 819.408 16.8063 819.736 16.8063H820.269C820.433 17.0522 820.515 17.2025 820.515 17.2572C820.515 17.3118 820.241 18.118 819.695 19.6757C819.148 21.2333 818.547 22.8729 817.891 24.5946C817.235 26.3162 816.88 27.3273 816.826 27.6279C816.771 27.7645 816.716 27.8465 816.662 27.8738C816.607 27.9012 816.388 27.9422 816.006 27.9968C815.623 28.0515 815.036 28.0651 814.243 28.0378C813.943 28.0378 812.904 28.0378 811.128 28.0378C809.352 28.0378 807.657 28.0241 806.045 27.9968H798.749C796.453 27.9968 795.305 27.8602 795.305 27.5869C795.305 27.3956 795.333 27.2043 795.387 27.013C795.524 26.4938 795.661 26.2069 795.797 26.1522C795.906 26.1249 796.111 26.1112 796.412 26.1112H796.658C797.396 26.1112 798.216 26.0702 799.117 25.9883C799.5 25.9063 799.76 25.7423 799.896 25.4964C799.978 25.3871 800.962 21.5886 802.848 14.1009C804.733 6.6132 805.676 2.66441 805.676 2.2545C805.676 2.06321 804.897 1.94024 803.34 1.88558Z" fill="black"/>
<path d="M824.204 18.282C824.204 18.282 824.204 18.1043 824.204 17.7491C824.204 17.3938 824.395 17.1205 824.778 16.9293H837.034V10.7806L837.075 4.63197C837.348 4.27672 837.608 4.09909 837.854 4.09909C838.209 4.09909 838.482 4.30404 838.674 4.71395V16.9293H850.889C851.299 17.1479 851.504 17.4211 851.504 17.7491C851.504 18.077 851.299 18.3503 850.889 18.5689H838.674V30.7842C838.455 31.1668 838.209 31.3581 837.936 31.3581H837.854H837.772C837.444 31.3581 837.198 31.1668 837.034 30.7842V18.5689H824.778C824.395 18.3776 824.204 18.1043 824.204 17.7491V18.282Z" fill="black"/>
<path d="M862.53 4.30405L861.998 4.509C861.615 4.64564 861.068 4.78227 860.358 4.91891C859.647 5.05555 858.855 5.15119 857.98 5.20585H857.202V3.32026H857.98C859.265 3.26561 860.454 3.06065 861.547 2.7054C862.64 2.35014 863.405 2.02222 863.842 1.72162C864.279 1.42102 864.662 1.12042 864.99 0.819816C865.045 0.737834 865.208 0.696843 865.482 0.696843C865.728 0.696843 865.96 0.778825 866.179 0.942789V13.1991L866.22 25.4964C866.411 25.6877 866.575 25.8106 866.711 25.8653C866.848 25.9199 867.176 25.9746 867.695 26.0292C868.214 26.0839 869.062 26.1112 870.237 26.1112H871.302V27.9968H870.852C870.278 27.9148 868.105 27.8738 864.334 27.8738C860.618 27.8738 858.472 27.9148 857.898 27.9968H857.407V26.1112H858.472C859.074 26.1112 859.593 26.1112 860.03 26.1112C860.467 26.1112 860.809 26.0976 861.055 26.0702C861.301 26.0429 861.519 26.0019 861.711 25.9473C861.902 25.8926 862.011 25.8653 862.039 25.8653C862.066 25.8653 862.148 25.797 862.284 25.6603C862.421 25.5237 862.503 25.469 862.53 25.4964V4.30405Z" fill="black"/>
</g>
<g filter="url(#filter4_d_4_2073)">
<path d="M619.707 187.707C620.098 187.317 620.098 186.683 619.707 186.293L613.343 179.929C612.953 179.538 612.319 179.538 611.929 179.929C611.538 180.319 611.538 180.953 611.929 181.343L617.586 187L611.929 192.657C611.538 193.047 611.538 193.681 611.929 194.071C612.319 194.462 612.953 194.462 613.343 194.071L619.707 187.707ZM255 188L619 188V186L255 186V188Z" fill="black"/>
</g>
<g filter="url(#filter5_d_4_2073)">
<path d="M296.861 175.047C296.922 175.047 297.013 175.077 297.134 175.138C297.255 175.198 297.422 175.244 297.633 175.274C297.845 175.304 298.027 175.32 298.178 175.32C298.572 175.32 298.935 175.123 299.269 174.729C299.602 174.335 299.844 173.896 299.995 173.412C300.298 172.594 300.813 170.278 301.539 166.463C302.266 162.648 302.963 159.014 303.629 155.563C304.295 152.111 304.628 150.37 304.628 150.34V150.203H302.493C301.07 150.203 300.313 150.173 300.222 150.112C300.101 150.022 300.041 149.87 300.041 149.658L300.359 148.387C300.419 148.235 300.54 148.159 300.722 148.159C300.904 148.159 301.615 148.144 302.857 148.114C304.31 148.114 305.037 148.099 305.037 148.069C305.037 148.008 305.173 147.251 305.445 145.798C305.718 144.344 305.9 143.466 305.99 143.163C307.111 138.167 309.321 135.669 312.621 135.669C313.742 135.73 314.665 136.063 315.392 136.669C316.119 137.274 316.482 138.077 316.482 139.076C316.482 140.166 316.164 140.953 315.528 141.438C314.892 141.922 314.257 142.179 313.621 142.21C312.288 142.21 311.622 141.574 311.622 140.302C311.622 139.727 311.789 139.227 312.122 138.803C312.455 138.379 312.818 138.061 313.212 137.85L313.621 137.622C313.136 137.441 312.682 137.35 312.258 137.35C311.895 137.35 311.547 137.501 311.213 137.804C310.88 138.107 310.653 138.531 310.532 139.076C310.32 139.954 310.078 141.135 309.806 142.618C309.533 144.102 309.291 145.359 309.079 146.388C308.867 147.418 308.761 147.963 308.761 148.023C308.761 148.084 309.594 148.114 311.259 148.114C312.621 148.114 313.409 148.129 313.621 148.159C313.833 148.19 313.999 148.281 314.12 148.432C314.151 148.553 314.12 148.81 314.029 149.204C313.939 149.598 313.863 149.84 313.802 149.931C313.742 150.082 313.606 150.158 313.394 150.158C313.182 150.158 312.364 150.173 310.941 150.203H308.398L307.353 155.744C305.9 163.253 304.885 167.947 304.31 169.824C303.492 172.398 302.433 174.305 301.131 175.547C300.01 176.516 298.905 177 297.815 177C296.846 177 295.968 176.712 295.181 176.137C294.394 175.562 294 174.744 294 173.684C294 172.564 294.318 171.747 294.954 171.232C295.59 170.717 296.225 170.46 296.861 170.46C298.194 170.46 298.86 171.096 298.86 172.367C298.86 172.943 298.693 173.442 298.36 173.866C298.027 174.29 297.664 174.608 297.27 174.82L296.861 175.047Z" fill="black"/>
<path d="M326.138 130.372L325.72 130.532C325.42 130.639 324.992 130.746 324.436 130.853C323.879 130.96 323.258 131.035 322.573 131.078H321.963V129.601H322.573C323.579 129.558 324.511 129.398 325.367 129.119C326.223 128.841 326.823 128.584 327.165 128.349C327.508 128.113 327.807 127.878 328.064 127.642C328.107 127.578 328.235 127.546 328.449 127.546C328.642 127.546 328.824 127.61 328.995 127.739V137.34L329.027 146.973C329.177 147.123 329.306 147.219 329.413 147.262C329.52 147.305 329.777 147.347 330.183 147.39C330.59 147.433 331.254 147.454 332.174 147.454H333.009V148.932H332.656C332.206 148.867 330.505 148.835 327.55 148.835C324.639 148.835 322.959 148.867 322.509 148.932H322.124V147.454H322.959C323.43 147.454 323.836 147.454 324.179 147.454C324.521 147.454 324.789 147.444 324.982 147.422C325.174 147.401 325.345 147.369 325.495 147.326C325.645 147.283 325.731 147.262 325.752 147.262C325.774 147.262 325.838 147.208 325.945 147.101C326.052 146.994 326.116 146.951 326.138 146.973V130.372Z" fill="black"/>
<path d="M352.785 156.925C352.785 156.925 352.785 156.728 352.785 156.335C352.785 155.941 352.997 155.638 353.421 155.426H388.165C384.653 152.792 382.488 149.416 381.671 145.298C381.671 145.268 381.671 145.222 381.671 145.162C381.671 145.101 381.656 145.056 381.625 145.026C381.625 144.662 381.883 144.481 382.397 144.481H382.534C382.806 144.481 382.988 144.496 383.079 144.526C383.169 144.556 383.26 144.617 383.351 144.708C383.442 144.799 383.487 144.935 383.487 145.116C383.487 145.298 383.533 145.54 383.624 145.843C383.715 146.146 383.836 146.524 383.987 146.979C384.653 149.007 385.758 150.824 387.303 152.429C388.847 154.034 390.648 155.169 392.707 155.835C392.98 155.926 393.116 156.093 393.116 156.335C393.116 156.516 393.04 156.653 392.889 156.744C392.738 156.834 392.374 156.986 391.799 157.198C391.224 157.41 390.648 157.697 390.073 158.061C388.832 158.848 387.757 159.756 386.848 160.786C385.94 161.815 385.259 162.83 384.805 163.829C384.35 164.828 384.032 165.585 383.851 166.1C383.669 166.614 383.548 167.084 383.487 167.508C383.427 167.81 383.351 167.992 383.26 168.053C383.169 168.113 382.927 168.159 382.534 168.189C381.928 168.189 381.625 168.022 381.625 167.689C381.625 167.477 381.701 167.099 381.852 166.554C382.821 162.739 384.926 159.635 388.165 157.243H353.421C352.997 157.031 352.785 156.728 352.785 156.335V156.925Z" fill="black"/>
<path d="M411.819 156.335C411.819 155.608 412.077 154.972 412.591 154.427C413.106 153.882 413.757 153.61 414.544 153.61C415.271 153.61 415.907 153.852 416.452 154.336C416.997 154.821 417.285 155.472 417.315 156.289C417.315 157.046 417.058 157.697 416.543 158.242C416.028 158.787 415.377 159.06 414.59 159.06C413.803 159.06 413.152 158.802 412.637 158.288C412.122 157.773 411.85 157.122 411.819 156.335ZM432.121 156.335C432.121 155.608 432.379 154.972 432.893 154.427C433.408 153.882 434.059 153.61 434.846 153.61C435.573 153.61 436.209 153.852 436.754 154.336C437.299 154.821 437.587 155.472 437.617 156.289C437.617 157.046 437.359 157.697 436.845 158.242C436.33 158.787 435.679 159.06 434.892 159.06C434.104 159.06 433.453 158.802 432.939 158.288C432.424 157.773 432.152 157.122 432.121 156.335ZM452.423 156.335C452.423 155.608 452.681 154.972 453.195 154.427C453.71 153.882 454.361 153.61 455.148 153.61C455.875 153.61 456.511 153.852 457.056 154.336C457.601 154.821 457.888 155.472 457.919 156.289C457.919 157.046 457.661 157.697 457.147 158.242C456.632 158.787 455.981 159.06 455.194 159.06C454.406 159.06 453.755 158.802 453.241 158.288C452.726 157.773 452.453 157.122 452.423 156.335Z" fill="black"/>
<path d="M476.667 156.925C476.667 156.925 476.667 156.728 476.667 156.335C476.667 155.941 476.879 155.638 477.303 155.426H512.048C508.536 152.792 506.371 149.416 505.553 145.298C505.553 145.268 505.553 145.222 505.553 145.162C505.553 145.101 505.538 145.056 505.508 145.026C505.508 144.662 505.765 144.481 506.28 144.481H506.416C506.689 144.481 506.87 144.496 506.961 144.526C507.052 144.556 507.143 144.617 507.234 144.708C507.325 144.799 507.37 144.935 507.37 145.116C507.37 145.298 507.415 145.54 507.506 145.843C507.597 146.146 507.718 146.524 507.87 146.979C508.536 149.007 509.641 150.824 511.185 152.429C512.729 154.034 514.531 155.169 516.59 155.835C516.862 155.926 516.999 156.093 516.999 156.335C516.999 156.516 516.923 156.653 516.772 156.744C516.62 156.834 516.257 156.986 515.682 157.198C515.106 157.41 514.531 157.697 513.956 158.061C512.714 158.848 511.639 159.756 510.731 160.786C509.823 161.815 509.141 162.83 508.687 163.829C508.233 164.828 507.915 165.585 507.733 166.1C507.552 166.614 507.431 167.084 507.37 167.508C507.309 167.81 507.234 167.992 507.143 168.053C507.052 168.113 506.81 168.159 506.416 168.189C505.811 168.189 505.508 168.022 505.508 167.689C505.508 167.477 505.584 167.099 505.735 166.554C506.704 162.739 508.808 159.635 512.048 157.243H477.303C476.879 157.031 476.667 156.728 476.667 156.335V156.925Z" fill="black"/>
<path d="M537.519 175.047C537.579 175.047 537.67 175.077 537.791 175.138C537.912 175.198 538.079 175.244 538.291 175.274C538.503 175.304 538.684 175.32 538.836 175.32C539.229 175.32 539.593 175.123 539.926 174.729C540.259 174.335 540.501 173.896 540.652 173.412C540.955 172.594 541.47 170.278 542.197 166.463C542.923 162.648 543.62 159.014 544.286 155.563C544.952 152.111 545.285 150.37 545.285 150.34V150.203H543.15C541.727 150.203 540.97 150.173 540.88 150.112C540.758 150.022 540.698 149.87 540.698 149.658L541.016 148.387C541.076 148.235 541.198 148.159 541.379 148.159C541.561 148.159 542.272 148.144 543.514 148.114C544.967 148.114 545.694 148.099 545.694 148.069C545.694 148.008 545.83 147.251 546.103 145.798C546.375 144.344 546.557 143.466 546.648 143.163C547.768 138.167 549.978 135.669 553.279 135.669C554.399 135.73 555.323 136.063 556.049 136.669C556.776 137.274 557.139 138.077 557.139 139.076C557.139 140.166 556.821 140.953 556.186 141.438C555.55 141.922 554.914 142.179 554.278 142.21C552.946 142.21 552.28 141.574 552.28 140.302C552.28 139.727 552.446 139.227 552.779 138.803C553.112 138.379 553.476 138.061 553.869 137.85L554.278 137.622C553.793 137.441 553.339 137.35 552.915 137.35C552.552 137.35 552.204 137.501 551.871 137.804C551.538 138.107 551.311 138.531 551.19 139.076C550.978 139.954 550.735 141.135 550.463 142.618C550.19 144.102 549.948 145.359 549.736 146.388C549.524 147.418 549.418 147.963 549.418 148.023C549.418 148.084 550.251 148.114 551.916 148.114C553.279 148.114 554.066 148.129 554.278 148.159C554.49 148.19 554.656 148.281 554.778 148.432C554.808 148.553 554.778 148.81 554.687 149.204C554.596 149.598 554.52 149.84 554.46 149.931C554.399 150.082 554.263 150.158 554.051 150.158C553.839 150.158 553.021 150.173 551.598 150.203H549.055L548.01 155.744C546.557 163.253 545.543 167.947 544.967 169.824C544.15 172.398 543.09 174.305 541.788 175.547C540.668 176.516 539.562 177 538.472 177C537.503 177 536.625 176.712 535.838 176.137C535.051 175.562 534.657 174.744 534.657 173.684C534.657 172.564 534.975 171.747 535.611 171.232C536.247 170.717 536.883 170.46 537.519 170.46C538.851 170.46 539.517 171.096 539.517 172.367C539.517 172.943 539.35 173.442 539.017 173.866C538.684 174.29 538.321 174.608 537.927 174.82L537.519 175.047Z" fill="black"/>
<path d="M567.276 128.477C566.549 128.477 566.163 128.434 566.12 128.349C566.099 128.306 566.088 128.22 566.088 128.092C566.088 127.578 566.206 127.225 566.442 127.032C566.484 127.011 566.645 127 566.923 127C568.079 127.064 569.439 127.096 571.001 127.096C574.02 127.096 575.754 127.064 576.203 127H576.589C576.717 127.128 576.781 127.225 576.781 127.289C576.781 127.353 576.76 127.546 576.717 127.867C576.61 128.188 576.514 128.391 576.428 128.477H575.208C573.731 128.498 572.864 128.595 572.607 128.766C572.457 128.852 572.307 129.151 572.157 129.665C572.007 130.179 571.29 133.005 570.006 138.142C569.663 139.534 569.299 141.011 568.914 142.574C568.529 144.136 568.24 145.314 568.047 146.106L567.758 147.262C567.758 147.347 567.854 147.39 568.047 147.39C568.24 147.39 568.871 147.412 569.942 147.454H570.488C571.173 147.454 571.718 147.444 572.125 147.422C572.532 147.401 573.056 147.326 573.699 147.198C574.341 147.069 574.876 146.876 575.304 146.62C575.732 146.363 576.203 145.999 576.717 145.528C577.231 145.057 577.68 144.468 578.066 143.762C578.408 143.12 578.729 142.402 579.029 141.61C579.329 140.818 579.511 140.369 579.575 140.262C579.682 140.197 579.864 140.165 580.121 140.165H580.538C580.667 140.358 580.731 140.476 580.731 140.519C580.731 140.561 580.517 141.193 580.089 142.413C579.66 143.633 579.189 144.918 578.676 146.266C578.162 147.615 577.884 148.407 577.841 148.643C577.798 148.75 577.755 148.814 577.712 148.835C577.67 148.857 577.498 148.889 577.199 148.932C576.899 148.974 576.439 148.985 575.818 148.964C575.582 148.964 574.769 148.964 573.377 148.964C571.986 148.964 570.659 148.953 569.396 148.932H563.68C561.882 148.932 560.983 148.825 560.983 148.61C560.983 148.461 561.004 148.311 561.047 148.161C561.154 147.754 561.261 147.529 561.368 147.487C561.454 147.465 561.614 147.454 561.85 147.454H562.042C562.62 147.454 563.263 147.422 563.969 147.358C564.269 147.294 564.472 147.165 564.579 146.973C564.643 146.887 565.414 143.912 566.891 138.046C568.368 132.181 569.107 129.087 569.107 128.766C569.107 128.616 568.497 128.52 567.276 128.477Z" fill="black"/>
</g>
<defs>
<filter id="filter0_d_4_2073" x="0" y="56" width="260" height="260" filterUnits="userSpaceOnUse" color-interpolation-filters="sRGB">
<feFlood flood-opacity="0" result="BackgroundImageFix"/>
<feColorMatrix in="SourceAlpha" type="matrix" values="0 0 0 0 0 0 0 0 0 0 0 0 0 0 0 0 0 0 127 0" result="hardAlpha"/>
<feOffset dy="4"/>
<feGaussianBlur stdDeviation="2"/>
<feComposite in2="hardAlpha" operator="out"/>
<feColorMatrix type="matrix" values="0 0 0 0 0 0 0 0 0 0 0 0 0 0 0 0 0 0 0.25 0"/>
<feBlend mode="normal" in2="BackgroundImageFix" result="effect1_dropShadow_4_2073"/>
<feBlend mode="normal" in="SourceGraphic" in2="effect1_dropShadow_4_2073" result="shape"/>
</filter>
<filter id="filter1_d_4_2073" x="95" y="2" width="69.8904" height="58" filterUnits="userSpaceOnUse" color-interpolation-filters="sRGB">
<feFlood flood-opacity="0" result="BackgroundImageFix"/>
<feColorMatrix in="SourceAlpha" type="matrix" values="0 0 0 0 0 0 0 0 0 0 0 0 0 0 0 0 0 0 127 0" result="hardAlpha"/>
<feOffset dy="4"/>
<feGaussianBlur stdDeviation="2"/>
<feComposite in2="hardAlpha" operator="out"/>
<feColorMatrix type="matrix" values="0 0 0 0 0 0 0 0 0 0 0 0 0 0 0 0 0 0 0.25 0"/>
<feBlend mode="normal" in2="BackgroundImageFix" result="effect1_dropShadow_4_2073"/>
<feBlend mode="normal" in="SourceGraphic" in2="effect1_dropShadow_4_2073" result="shape"/>
</filter>
<filter id="filter2_d_4_2073" x="614" y="56.4747" width="260" height="260" filterUnits="userSpaceOnUse" color-interpolation-filters="sRGB">
<feFlood flood-opacity="0" result="BackgroundImageFix"/>
<feColorMatrix in="SourceAlpha" type="matrix" values="0 0 0 0 0 0 0 0 0 0 0 0 0 0 0 0 0 0 127 0" result="hardAlpha"/>
<feOffset dy="4"/>
<feGaussianBlur stdDeviation="2"/>
<feComposite in2="hardAlpha" operator="out"/>
<feColorMatrix type="matrix" values="0 0 0 0 0 0 0 0 0 0 0 0 0 0 0 0 0 0 0.25 0"/>
<feBlend mode="normal" in2="BackgroundImageFix" result="effect1_dropShadow_4_2073"/>
<feBlend mode="normal" in="SourceGraphic" in2="effect1_dropShadow_4_2073" result="shape"/>
</filter>
<filter id="filter3_d_4_2073" x="620" y="0" width="255.302" height="60" filterUnits="userSpaceOnUse" color-interpolation-filters="sRGB">
<feFlood flood-opacity="0" result="BackgroundImageFix"/>
<feColorMatrix in="SourceAlpha" type="matrix" values="0 0 0 0 0 0 0 0 0 0 0 0 0 0 0 0 0 0 127 0" result="hardAlpha"/>
<feOffset dy="4"/>
<feGaussianBlur stdDeviation="2"/>
<feComposite in2="hardAlpha" operator="out"/>
<feColorMatrix type="matrix" values="0 0 0 0 0 0 0 0 0 0 0 0 0 0 0 0 0 0 0.25 0"/>
<feBlend mode="normal" in2="BackgroundImageFix" result="effect1_dropShadow_4_2073"/>
<feBlend mode="normal" in="SourceGraphic" in2="effect1_dropShadow_4_2073" result="shape"/>
</filter>
<filter id="filter4_d_4_2073" x="251" y="179.636" width="373" height="22.7279" filterUnits="userSpaceOnUse" color-interpolation-filters="sRGB">
<feFlood flood-opacity="0" result="BackgroundImageFix"/>
<feColorMatrix in="SourceAlpha" type="matrix" values="0 0 0 0 0 0 0 0 0 0 0 0 0 0 0 0 0 0 127 0" result="hardAlpha"/>
<feOffset dy="4"/>
<feGaussianBlur stdDeviation="2"/>
<feComposite in2="hardAlpha" operator="out"/>
<feColorMatrix type="matrix" values="0 0 0 0 0 0 0 0 0 0 0 0 0 0 0 0 0 0 0.25 0"/>
<feBlend mode="normal" in2="BackgroundImageFix" result="effect1_dropShadow_4_2073"/>
<feBlend mode="normal" in="SourceGraphic" in2="effect1_dropShadow_4_2073" result="shape"/>
</filter>
<filter id="filter5_d_4_2073" x="290" y="127" width="294.731" height="58" filterUnits="userSpaceOnUse" color-interpolation-filters="sRGB">
<feFlood flood-opacity="0" result="BackgroundImageFix"/>
<feColorMatrix in="SourceAlpha" type="matrix" values="0 0 0 0 0 0 0 0 0 0 0 0 0 0 0 0 0 0 127 0" result="hardAlpha"/>
<feOffset dy="4"/>
<feGaussianBlur stdDeviation="2"/>
<feComposite in2="hardAlpha" operator="out"/>
<feColorMatrix type="matrix" values="0 0 0 0 0 0 0 0 0 0 0 0 0 0 0 0 0 0 0.25 0"/>
<feBlend mode="normal" in2="BackgroundImageFix" result="effect1_dropShadow_4_2073"/>
<feBlend mode="normal" in="SourceGraphic" in2="effect1_dropShadow_4_2073" result="shape"/>
</filter>
</defs>
</svg>
